<svg xmlns="http://www.w3.org/2000/svg" viewBox="0 0 480 280" width="480" height="280">
  <defs>
    <linearGradient id="bg3" x1="0" y1="0" x2="1" y2="1">
      <stop offset="0%" stop-color="#0a0a0a"/>
      <stop offset="100%" stop-color="#181818"/>
    </linearGradient>
    <linearGradient id="chart-grad" x1="0" y1="0" x2="0" y2="1">
      <stop offset="0%" stop-color="#555" stop-opacity="0.8"/>
      <stop offset="100%" stop-color="#222" stop-opacity="0.1"/>
    </linearGradient>
  </defs>

  <!-- Background -->
  <rect width="480" height="280" fill="url(#bg3)" rx="12"/>

  <!-- Top header bar -->
  <rect x="0" y="0" width="480" height="38" fill="#141414" rx="12"/>
  <rect x="0" y="26" width="480" height="12" fill="#141414"/>
  <rect x="16" y="13" width="72" height="7" rx="3.5" fill="#3a3a3a"/>
  <rect x="360" y="11" width="100" height="18" rx="5" fill="#2a2a2a"/>
  <rect x="370" y="17" width="80" height="6" rx="3" fill="#555"/>

  <!-- Stat cards row -->
  <rect x="16" y="50" width="100" height="48" rx="8" fill="#1a1a1a"/>
  <rect x="24" y="58" width="44" height="6" rx="3" fill="#444"/>
  <rect x="24" y="72" width="60" height="10" rx="4" fill="#666"/>

  <rect x="128" y="50" width="100" height="48" rx="8" fill="#1a1a1a"/>
  <rect x="136" y="58" width="40" height="6" rx="3" fill="#444"/>
  <rect x="136" y="72" width="56" height="10" rx="4" fill="#555"/>

  <rect x="240" y="50" width="100" height="48" rx="8" fill="#1a1a1a"/>
  <rect x="248" y="58" width="48" height="6" rx="3" fill="#444"/>
  <rect x="248" y="72" width="52" height="10" rx="4" fill="#555"/>

  <rect x="352" y="50" width="112" height="48" rx="8" fill="#1a1a1a"/>
  <rect x="360" y="58" width="52" height="6" rx="3" fill="#444"/>
  <rect x="360" y="72" width="64" height="10" rx="4" fill="#555"/>

  <!-- Main chart area -->
  <rect x="16" y="110" width="296" height="154" rx="8" fill="#141414"/>
  <rect x="24" y="118" width="80" height="8" rx="4" fill="#444"/>

  <!-- Y-axis labels -->
  <rect x="24" y="136" width="20" height="4" rx="2" fill="#2e2e2e"/>
  <rect x="24" y="156" width="20" height="4" rx="2" fill="#2e2e2e"/>
  <rect x="24" y="176" width="20" height="4" rx="2" fill="#2e2e2e"/>
  <rect x="24" y="196" width="20" height="4" rx="2" fill="#2e2e2e"/>
  <rect x="24" y="216" width="20" height="4" rx="2" fill="#2e2e2e"/>

  <!-- Grid lines -->
  <line x1="52" y1="138" x2="300" y2="138" stroke="#222" stroke-width="1"/>
  <line x1="52" y1="158" x2="300" y2="158" stroke="#222" stroke-width="1"/>
  <line x1="52" y1="178" x2="300" y2="178" stroke="#222" stroke-width="1"/>
  <line x1="52" y1="198" x2="300" y2="198" stroke="#222" stroke-width="1"/>
  <line x1="52" y1="218" x2="300" y2="218" stroke="#222" stroke-width="1"/>

  <!-- Area chart fill -->
  <polygon points="52,210 90,188 128,194 166,172 204,160 242,148 280,138 300,130 300,220 52,220"
           fill="url(#chart-grad)"/>

  <!-- Chart line -->
  <polyline points="52,210 90,188 128,194 166,172 204,160 242,148 280,138 300,130"
            fill="none" stroke="#666" stroke-width="2" stroke-linejoin="round"/>

  <!-- Data points on line -->
  <circle cx="52"  cy="210" r="3.5" fill="#888"/>
  <circle cx="90"  cy="188" r="3.5" fill="#888"/>
  <circle cx="128" cy="194" r="3.5" fill="#888"/>
  <circle cx="166" cy="172" r="3.5" fill="#888"/>
  <circle cx="204" cy="160" r="3.5" fill="#888"/>
  <circle cx="242" cy="148" r="3.5" fill="#888"/>
  <circle cx="280" cy="138" r="3.5" fill="#888"/>
  <circle cx="300" cy="130" r="4.5" fill="#bbb" stroke="#888" stroke-width="1.5"/>

  <!-- Right panel: data table / model results -->
  <rect x="324" y="110" width="140" height="154" rx="8" fill="#141414"/>
  <rect x="332" y="118" width="72" height="8" rx="4" fill="#444"/>
  <!-- Table rows -->
  <rect x="332" y="136" width="124" height="1" fill="#222"/>
  <rect x="332" y="140" width="60" height="5" rx="2.5" fill="#333"/>
  <rect x="392" y="140" width="32" height="5" rx="2.5" fill="#555"/>
  <rect x="332" y="153" width="1" height="0" fill="none"/>
  <rect x="332" y="154" width="124" height="1" fill="#222"/>
  <rect x="332" y="158" width="72" height="5" rx="2.5" fill="#333"/>
  <rect x="392" y="158" width="40" height="5" rx="2.5" fill="#555"/>
  <rect x="332" y="171" width="124" height="1" fill="#222"/>
  <rect x="332" y="175" width="56" height="5" rx="2.5" fill="#333"/>
  <rect x="392" y="175" width="28" height="5" rx="2.5" fill="#555"/>
  <rect x="332" y="188" width="124" height="1" fill="#222"/>
  <rect x="332" y="192" width="64" height="5" rx="2.5" fill="#333"/>
  <rect x="392" y="192" width="36" height="5" rx="2.5" fill="#555"/>
  <rect x="332" y="205" width="124" height="1" fill="#222"/>
  <rect x="332" y="209" width="48" height="5" rx="2.5" fill="#333"/>
  <rect x="392" y="209" width="44" height="5" rx="2.5" fill="#555"/>
  <rect x="332" y="222" width="124" height="1" fill="#222"/>
  <rect x="332" y="226" width="52" height="5" rx="2.5" fill="#333"/>
  <rect x="392" y="226" width="36" height="5" rx="2.5" fill="#555"/>
  <rect x="332" y="239" width="124" height="1" fill="#222"/>
  <rect x="332" y="246" width="80" height="10" rx="4" fill="#333"/>
  <rect x="420" y="248" width="28" height="6" rx="3" fill="#555"/>
</svg>
